<?xml version="1.0" encoding="utf-8"?>
<!-- Generator: Adobe Illustrator 18.0.0, SVG Export Plug-In . SVG Version: 6.00 Build 0)  -->
<!DOCTYPE svg PUBLIC "-//W3C//DTD SVG 1.1//EN" "http://www.w3.org/Graphics/SVG/1.1/DTD/svg11.dtd">
<svg version="1.1" id="Layer_1" xmlns="http://www.w3.org/2000/svg" xmlns:xlink="http://www.w3.org/1999/xlink" x="0px" y="0px"
	 viewBox="0 0 194.5 70.2" enable-background="new 0 0 194.5 70.2" xml:space="preserve">
<g>
	<path fill="#231F20" d="M12.7,0.8c0-0.4,0.4-0.8,1-0.8h19.1c0.6,0,0.9,0.4,0.9,0.8v11.4c0,0.4-0.3,0.8-0.9,0.8h-6.7v44.1h6.7
		c0.6,0,0.9,0.4,0.9,0.8v11.4c0,0.4-0.3,0.8-0.9,0.8H13.7c-0.6,0-1-0.4-1-0.8V41.8c-4.1-2-8-4.1-12.1-6c-0.8-0.3-0.8-1.1,0-1.4
		l12.1-6V0.8z"/>
	<path fill="#231F20" d="M81.8,34.5c10.9,3.8,10.5,15.3,10.5,15.3c0,19.4-19.7,20.4-24.6,20.4H45.1c-0.5,0-0.9-0.4-0.9-0.8V0.8
		c0-0.4,0.4-0.8,0.9-0.8h22.7c0,0,23.7-0.6,23.7,19.9C91.4,27.9,87,32.4,81.8,34.5z M57.4,28.9h10.3c1.9,0,10.3-0.7,10.3-8.3
		c0-8.3-10.3-7.7-10.3-7.7H57.4V28.9z M79.1,49.4c0-8.3-9.1-8.3-11.3-8.3H57.4v16.2h10.3C72.2,57.3,79.1,56,79.1,49.4z"/>
	<path fill="#231F20" d="M125.4,41.8h-7.5v27.6c0,0.4-0.4,0.8-1,0.8h-11.4c-0.5,0-0.9-0.4-0.9-0.8V0.8c0-0.4,0.4-0.8,0.9-0.8h22.7
		c4,0,23.8,0.2,23.8,20.9c0,10.7-5.9,16.3-12.9,18.8c4.4,9.9,9.1,19.5,13.5,29.4c0.3,0.6-0.1,1.1-0.8,1.1h-12.5
		c-0.3,0-0.8-0.3-0.9-0.5L125.4,41.8z M117.9,29h10.2c2.9,0,10.4-0.4,10.4-8.1s-8.3-8.1-10.4-8.1h-10.2V29z"/>
	<path fill="#231F20" d="M181.7,69.4c0,0.4-0.4,0.8-1,0.8h-19.1c-0.6,0-0.9-0.4-0.9-0.8V57.9c0-0.4,0.3-0.8,0.9-0.8h6.7V13h-6.7
		c-0.6,0-0.9-0.4-0.9-0.8V0.8c0-0.4,0.3-0.8,0.9-0.8h19.1c0.6,0,1,0.4,1,0.8v27.6c4.1,2,8,4.1,12.1,6c0.8,0.3,0.8,1.1,0,1.4l-12.1,6
		V69.4z"/>
</g>
</svg>
